# xmcd
#
# Track frame offsets: 
#        150
#        19822
#        39427
#        59129
#
# Disc length: 1045 seconds
#
# Revision: 2
# Processed by: cddbd v1.5.2PL0 Copyright (c) Steve Scherf et al.
# Submitted via: ExactAudioCopy v1.0b2
#
DISCID=31041304
DTITLE=ハクア starring 早見沙織 - 「神のみぞ知るセカイII」キャラクターCD.00 ハクア starring 早見沙織
DYEAR=2011
DGENRE=Anime
TTITLE0=NAKED GENIUS
TTITLE1=アイノヨカン from Haqua
TTITLE2=NAKED GENIUS (Instrumental)
TTITLE3=アイノヨカン from Haqua (Instrumental)
EXTD=神のみぞ知るセカイⅡキャラクターCD00 YEAR: 2011
EXTT0=
EXTT1=
EXTT2=
EXTT3=
PLAYORDER=
